<svg xmlns="http://www.w3.org/2000/svg" width="185.72" height="51.973" viewBox="0 0 185.72 51.973">
  <g data-name="Gruppe 1" transform="translate(-391.33 -426.46)">
    <path d="M2.79,0a.731.731,0,0,1-.54-.21.731.731,0,0,1-.21-.54V-20.22a.783.783,0,0,1,.21-.555A.706.706,0,0,1,2.79-21H6.9a.754.754,0,0,1,.555.225.754.754,0,0,1,.225.555v7.11h7.08v-7.11a.754.754,0,0,1,.225-.555A.754.754,0,0,1,15.54-21h4.08a.754.754,0,0,1,.555.225.754.754,0,0,1,.225.555V-.75a.706.706,0,0,1-.225.54A.783.783,0,0,1,19.62,0H15.54a.783.783,0,0,1-.555-.21.706.706,0,0,1-.225-.54V-8.1H7.68V-.75a.706.706,0,0,1-.225.54A.783.783,0,0,1,6.9,0ZM31.47.3a8.1,8.1,0,0,1-5.76-1.965A7.627,7.627,0,0,1,23.55-7.38v-.93a7.74,7.74,0,0,1,2.22-5.58,7.858,7.858,0,0,1,5.67-2.01,8.572,8.572,0,0,1,4.365,1.035,6.556,6.556,0,0,1,2.67,2.85A9.293,9.293,0,0,1,39.36-7.89v.75a.754.754,0,0,1-.225.555.754.754,0,0,1-.555.225H29.07v.18a3.763,3.763,0,0,0,.63,2.175,1.988,1.988,0,0,0,1.71.825,2.079,2.079,0,0,0,1.155-.285A4,4,0,0,0,33.39-4.2a1.57,1.57,0,0,1,.435-.375,1.354,1.354,0,0,1,.525-.075h3.93a.7.7,0,0,1,.465.165.511.511,0,0,1,.195.405,3.058,3.058,0,0,1-.885,1.83,7.021,7.021,0,0,1-2.58,1.8A9.837,9.837,0,0,1,31.47.3Zm2.37-9.72v-.06a3.518,3.518,0,0,0-.63-2.235,2.13,2.13,0,0,0-1.77-.8,2.088,2.088,0,0,0-1.755.8A3.579,3.579,0,0,0,29.07-9.48v.06Zm9,9.42a.783.783,0,0,1-.555-.21.706.706,0,0,1-.225-.54v-19.8a.706.706,0,0,1,.225-.54.783.783,0,0,1,.555-.21h3.75a.731.731,0,0,1,.54.21.731.731,0,0,1,.21.54V-.75a.745.745,0,0,1-.21.525A.706.706,0,0,1,46.59,0Zm8.7,5.7a.783.783,0,0,1-.555-.21.706.706,0,0,1-.225-.54v-19.8a.706.706,0,0,1,.225-.54.783.783,0,0,1,.555-.21h3.57a.731.731,0,0,1,.54.21.731.731,0,0,1,.21.54v1.08a5.491,5.491,0,0,1,4.65-2.13,5.9,5.9,0,0,1,4.575,1.815A7.819,7.819,0,0,1,66.87-8.91q.03.39.03,1.11t-.03,1.14a7.78,7.78,0,0,1-1.8,5.1A5.837,5.837,0,0,1,60.51.3a5.026,5.026,0,0,1-4.35-1.98V4.95a.719.719,0,0,1-.75.75Zm7.23-9.57a2.243,2.243,0,0,0,1.935-.8,4.115,4.115,0,0,0,.675-2.2q.03-.3.03-.93t-.03-.93a4.115,4.115,0,0,0-.675-2.2,2.243,2.243,0,0,0-1.935-.8,2.262,2.262,0,0,0-1.92.825,3.633,3.633,0,0,0-.69,2.085q-.03.39-.03,1.14,0,.72.03,1.11a3.161,3.161,0,0,0,.7,1.935A2.351,2.351,0,0,0,58.77-3.87ZM70.53-17.76a.706.706,0,0,1-.54-.225.783.783,0,0,1-.21-.555v-2.79A.754.754,0,0,1,70-21.885a.72.72,0,0,1,.525-.225h3.75a.754.754,0,0,1,.555.225.754.754,0,0,1,.225.555v2.79a.754.754,0,0,1-.225.555.754.754,0,0,1-.555.225ZM70.53,0A.72.72,0,0,1,70-.225.72.72,0,0,1,69.78-.75v-14.1A.706.706,0,0,1,70-15.39a.745.745,0,0,1,.525-.21h3.75a.783.783,0,0,1,.555.21.706.706,0,0,1,.225.54V-.75a.706.706,0,0,1-.225.54A.783.783,0,0,1,74.28,0Zm8.7,0A.72.72,0,0,1,78.7-.225.72.72,0,0,1,78.48-.75v-14.1a.706.706,0,0,1,.225-.54.745.745,0,0,1,.525-.21h3.69a.731.731,0,0,1,.54.21.731.731,0,0,1,.21.54v1.14a5.876,5.876,0,0,1,2.085-1.59,6.794,6.794,0,0,1,2.925-.6,5.923,5.923,0,0,1,3.045.78,5.373,5.373,0,0,1,2.1,2.31,8.177,8.177,0,0,1,.765,3.69V-.75a.745.745,0,0,1-.21.525A.706.706,0,0,1,93.84,0H89.85a.783.783,0,0,1-.555-.21.706.706,0,0,1-.225-.54V-8.94a3,3,0,0,0-.645-2.07,2.387,2.387,0,0,0-1.875-.72A2.467,2.467,0,0,0,84.66-11a2.886,2.886,0,0,0-.69,2.055V-.75a.745.745,0,0,1-.21.525A.706.706,0,0,1,83.22,0Zm26.43,6.6a10.2,10.2,0,0,1-4.68-.93A6.519,6.519,0,0,1,98.4,3.525,4.027,4.027,0,0,1,97.62,1.5a.654.654,0,0,1,.24-.51A.8.8,0,0,1,98.4.78h4.02a.781.781,0,0,1,.48.135,1.183,1.183,0,0,1,.33.465,2.7,2.7,0,0,0,.78,1.035,2.433,2.433,0,0,0,1.5.375,2.575,2.575,0,0,0,1.92-.645A3,3,0,0,0,108.06,0V-2.01a5.758,5.758,0,0,1-4.35,1.65,5.965,5.965,0,0,1-4.635-1.755A7.97,7.97,0,0,1,97.32-7.29l-.03-.81a9.021,9.021,0,0,1,1.635-5.73,5.732,5.732,0,0,1,4.785-2.07,5.961,5.961,0,0,1,2.7.585,5.678,5.678,0,0,1,1.95,1.575v-1.08a.783.783,0,0,1,.21-.555.706.706,0,0,1,.54-.225h3.66a.754.754,0,0,1,.555.225.754.754,0,0,1,.225.555V-.45a6.581,6.581,0,0,1-2.07,5.25A8.59,8.59,0,0,1,105.66,6.6Zm-.24-11.01a2.321,2.321,0,0,0,1.92-.78,3.482,3.482,0,0,0,.72-1.98,8.2,8.2,0,0,0,.03-.9,7.7,7.7,0,0,0-.03-.9,3.45,3.45,0,0,0-.72-1.995,2.343,2.343,0,0,0-1.92-.765,2.25,2.25,0,0,0-1.92.8,3.873,3.873,0,0,0-.66,2.2l-.03.66a5.332,5.332,0,0,0,.57,2.685A2.162,2.162,0,0,0,105.42-4.41Z" transform="translate(463.5 451)" fill="#f9f3f2"/>
    <path d="M2.79,0a.731.731,0,0,1-.54-.21.731.731,0,0,1-.21-.54V-20.22a.783.783,0,0,1,.21-.555A.706.706,0,0,1,2.79-21H6.9a.754.754,0,0,1,.555.225.754.754,0,0,1,.225.555v7.11h7.08v-7.11a.754.754,0,0,1,.225-.555A.754.754,0,0,1,15.54-21h4.08a.754.754,0,0,1,.555.225.754.754,0,0,1,.225.555V-.75a.706.706,0,0,1-.225.54A.783.783,0,0,1,19.62,0H15.54a.783.783,0,0,1-.555-.21.706.706,0,0,1-.225-.54V-8.1H7.68V-.75a.706.706,0,0,1-.225.54A.783.783,0,0,1,6.9,0ZM28.86.3a6.706,6.706,0,0,1-2.9-.615,4.959,4.959,0,0,1-2.04-1.695,4.124,4.124,0,0,1-.735-2.37A3.963,3.963,0,0,1,24.885-7.7,10.476,10.476,0,0,1,29.55-9.45l3.72-.57v-.36A2.412,2.412,0,0,0,32.82-12a1.958,1.958,0,0,0-1.53-.51,2.167,2.167,0,0,0-1,.21,5.408,5.408,0,0,0-.915.63,3.637,3.637,0,0,1-.69.48.348.348,0,0,1-.3.21H24.9a.671.671,0,0,1-.495-.2.543.543,0,0,1-.165-.465,3.292,3.292,0,0,1,.81-1.815,6.124,6.124,0,0,1,2.37-1.725,9.516,9.516,0,0,1,3.93-.72q3.72,0,5.52,1.635a5.681,5.681,0,0,1,1.8,4.425V-.75a.745.745,0,0,1-.21.525A.706.706,0,0,1,37.92,0H34.23A.72.72,0,0,1,33.7-.225.72.72,0,0,1,33.48-.75V-1.8A4.843,4.843,0,0,1,31.65-.285,6.175,6.175,0,0,1,28.86.3Zm1.5-3.54A2.822,2.822,0,0,0,32.5-4.11a3.526,3.526,0,0,0,.825-2.52v-.36l-2.49.42q-2.52.48-2.52,1.8A1.3,1.3,0,0,0,28.9-3.66,2.431,2.431,0,0,0,30.36-3.24ZM42.69,0a.72.72,0,0,1-.525-.225A.72.72,0,0,1,41.94-.75v-14.1a.706.706,0,0,1,.225-.54.745.745,0,0,1,.525-.21h3.69a.731.731,0,0,1,.54.21.731.731,0,0,1,.21.54v1.14a5.876,5.876,0,0,1,2.085-1.59,6.794,6.794,0,0,1,2.925-.6,5.923,5.923,0,0,1,3.045.78,5.373,5.373,0,0,1,2.1,2.31,8.177,8.177,0,0,1,.765,3.69V-.75a.745.745,0,0,1-.21.525A.706.706,0,0,1,57.3,0H53.31a.783.783,0,0,1-.555-.21.706.706,0,0,1-.225-.54V-8.94a3,3,0,0,0-.645-2.07,2.387,2.387,0,0,0-1.875-.72A2.467,2.467,0,0,0,48.12-11a2.886,2.886,0,0,0-.69,2.055V-.75a.745.745,0,0,1-.21.525A.706.706,0,0,1,46.68,0ZM67.17.3a5.875,5.875,0,0,1-4.575-1.83A7.927,7.927,0,0,1,60.81-6.75L60.78-7.8l.03-1.08a7.887,7.887,0,0,1,1.8-5.145A5.815,5.815,0,0,1,67.17-15.9a5.717,5.717,0,0,1,4.35,1.74v-6.39a.706.706,0,0,1,.225-.54.745.745,0,0,1,.525-.21h3.87a.783.783,0,0,1,.555.21.706.706,0,0,1,.225.54V-.75a.706.706,0,0,1-.225.54A.783.783,0,0,1,76.14,0H72.57a.72.72,0,0,1-.525-.225A.72.72,0,0,1,71.82-.75v-.93A5.663,5.663,0,0,1,67.17.3Zm1.74-4.17A2.262,2.262,0,0,0,70.83-4.7a3.633,3.633,0,0,0,.69-2.085q.06-.84.06-1.14,0-.33-.06-1.11a3.161,3.161,0,0,0-.705-1.935,2.351,2.351,0,0,0-1.9-.765,2.243,2.243,0,0,0-1.935.8,4.115,4.115,0,0,0-.675,2.2l-.03.93.03.93a4.115,4.115,0,0,0,.675,2.2A2.243,2.243,0,0,0,68.91-3.87ZM86.88.3a10.692,10.692,0,0,1-4.11-.69,6.23,6.23,0,0,1-2.445-1.65,2.859,2.859,0,0,1-.795-1.74.626.626,0,0,1,.225-.5.739.739,0,0,1,.5-.195h3.63a.407.407,0,0,1,.3.12,6.535,6.535,0,0,1,.57.39,6.048,6.048,0,0,0,1.065.645A2.847,2.847,0,0,0,87-3.09a2.561,2.561,0,0,0,1.335-.315.983.983,0,0,0,.525-.885,1.086,1.086,0,0,0-.285-.78,2.884,2.884,0,0,0-1.08-.585A16.757,16.757,0,0,0,85.08-6.24q-5.19-1.05-5.19-4.8a4.021,4.021,0,0,1,.795-2.355,5.542,5.542,0,0,1,2.34-1.815,9.042,9.042,0,0,1,3.705-.69,9.748,9.748,0,0,1,3.8.675,6.678,6.678,0,0,1,2.445,1.62,2.735,2.735,0,0,1,.84,1.725.686.686,0,0,1-.195.48.613.613,0,0,1-.465.21h-3.3a.656.656,0,0,1-.42-.12,4.729,4.729,0,0,1-.72-.45,8.067,8.067,0,0,0-.945-.555,2.389,2.389,0,0,0-1.035-.2,1.85,1.85,0,0,0-1.17.33,1.024,1.024,0,0,0-.42.84,1.061,1.061,0,0,0,.255.735,2.587,2.587,0,0,0,1.05.555,18.712,18.712,0,0,0,2.415.57,7.986,7.986,0,0,1,4.275,1.815A4.129,4.129,0,0,1,94.47-4.62a4.118,4.118,0,0,1-1.995,3.585A10,10,0,0,1,86.88.3Z" transform="translate(457 476)" fill="#f9f3f2"/>
    <path d="M70.242,31.033a6.024,6.024,0,0,1-.445,2.309,5.906,5.906,0,0,1-1.308,1.948l-8.43,8.43A6.97,6.97,0,0,1,58.5,51.26l-9.9,9.9a7.863,7.863,0,0,1-2.6,1.739,7.963,7.963,0,0,1-3.047.6,8.8,8.8,0,0,1-2.087-.25,7.3,7.3,0,0,1-2.615,1.767,8.279,8.279,0,0,1-3.088.6,7.608,7.608,0,0,1-2.212-.292,7.441,7.441,0,0,1-1.767-.793,10.784,10.784,0,0,1-1.558-1.182q-.751-.682-1.53-1.489l-.25-.25a8.084,8.084,0,0,1-2.852-.682,7.913,7.913,0,0,1-2.407-1.655L12.7,49.4a6.57,6.57,0,0,1-1.363-1.934,5.427,5.427,0,0,1-.473-2.268q0-.167.014-.348t.042-.376a6.538,6.538,0,0,1-.751-1.711,6.9,6.9,0,0,1-.25-1.85,6.754,6.754,0,0,1,.723-3.061q-.779-.751-1.558-1.461a12.555,12.555,0,0,1-1.405-1.5,7.721,7.721,0,0,1-1.029-1.725,5.312,5.312,0,0,1-.4-2.128,5.637,5.637,0,0,1,.459-2.3A6.86,6.86,0,0,1,8,26.8l10.489-11.3a5.794,5.794,0,0,1,1.975-1.377,5.966,5.966,0,0,1,2.365-.487A5.763,5.763,0,0,1,27.061,15.4l5.147,5.147a9.063,9.063,0,0,1,2.768-2.17,7.637,7.637,0,0,1,3.436-.751,8.15,8.15,0,0,1,1.781.181,6.411,6.411,0,0,1,1.516.543,9.444,9.444,0,0,1,1.377.863q.668.5,1.363,1.141L49.4,15.4a5.906,5.906,0,0,1,1.948-1.308,6.025,6.025,0,0,1,2.309-.445,6.2,6.2,0,0,1,2.3.445A5.256,5.256,0,0,1,57.889,15.4L68.6,26.915A5.892,5.892,0,0,1,70.242,31.033ZM54.272,49.841q.362-.362.765-.737a6.731,6.731,0,0,0,.737-.807,4.846,4.846,0,0,0,.556-.9,2.453,2.453,0,0,0,.223-1.057,2.044,2.044,0,0,0-.125-.723,5.5,5.5,0,0,1-.209-.7q-.139-.195-.264-.376a2.526,2.526,0,0,0-.292-.348l-13.55-13.55-5.4,5.231a8.754,8.754,0,0,1-2.588,1.753,7.7,7.7,0,0,1-3.061.584A8.528,8.528,0,0,1,26.6,36.848a6.124,6.124,0,0,1-1.683-1.628,3.732,3.732,0,0,1-.668-2.184,3.831,3.831,0,0,1,1.169-2.81l5.4-5.453-6.566-6.566a1.932,1.932,0,0,0-1.419-.584,2.187,2.187,0,0,0-.765.139,1.647,1.647,0,0,0-.654.445L10.841,29.642a2.057,2.057,0,0,0-.584,1.419,1.9,1.9,0,0,0,.584,1.391l4.006,3.923a2.081,2.081,0,0,1,.431-.209,3.415,3.415,0,0,1,.57-.153q.306-.056.6-.083t.487-.028a4.782,4.782,0,0,1,1.572.264,5,5,0,0,1,1.405.751,5.409,5.409,0,0,1,1.113,1.141,4.566,4.566,0,0,1,.7,1.433,5.474,5.474,0,0,1,2.434,1.558,6.985,6.985,0,0,1,1.405,2.56,5.115,5.115,0,0,1,1.419.57,6.483,6.483,0,0,1,1.28.974,6.055,6.055,0,0,1,.988,1.252,4.352,4.352,0,0,1,.543,1.433,5.258,5.258,0,0,1,1.795.779,5.716,5.716,0,0,1,1.405,1.349,6.638,6.638,0,0,1,.918,1.739,5.731,5.731,0,0,1,.334,1.92,5.845,5.845,0,0,1-.89,3.172A6.18,6.18,0,0,1,30.9,59.022q.445.417.89.876a8.018,8.018,0,0,0,.946.835,5.393,5.393,0,0,0,1.071.626,3.046,3.046,0,0,0,1.238.25,3.8,3.8,0,0,0,2.017-.57,8.891,8.891,0,0,0,1.655-1.294l-3.561-3.533a1,1,0,0,1,.7-1.7,1.385,1.385,0,0,1,.89.376,9.53,9.53,0,0,1,.932.918q.487.543,1.043,1.2a9.828,9.828,0,0,0,1.21,1.2,6.708,6.708,0,0,0,1.461.918,4.167,4.167,0,0,0,1.781.376,3,3,0,0,0,1.113-.209,4.767,4.767,0,0,0,1-.543,6.82,6.82,0,0,0,.89-.751q.417-.417.807-.835l.195-.223-4.925-4.952a.988.988,0,0,1,.7-1.7.944.944,0,0,1,.7.278L48.6,55.517l4.257-4.257L47.9,46.307a.988.988,0,0,1,.7-1.7.979.979,0,0,1,.723.278Zm1.975-8.208,9.4-9.182a1.932,1.932,0,0,0,.584-1.419,2.026,2.026,0,0,0-.584-1.391L55.079,18.206a1.646,1.646,0,0,0-.654-.431,2.159,2.159,0,0,0-.765-.153,1.932,1.932,0,0,0-1.419.584l-7.79,7.818-3.2-3.227a4.013,4.013,0,0,0-2.838-1.169,3.542,3.542,0,0,0-1.461.292,5.571,5.571,0,0,0-1.224.751,10.133,10.133,0,0,0-1.085,1.016q-.515.556-1.016,1.085l-6.789,6.872a1.932,1.932,0,0,0-.584,1.419,1.879,1.879,0,0,0,.515,1.294,5.051,5.051,0,0,0,1.238.988,6.518,6.518,0,0,0,1.53.64,5.355,5.355,0,0,0,1.391.223,6.584,6.584,0,0,0,2.407-.417,5.785,5.785,0,0,0,1.989-1.335q1.725-1.725,3.492-3.38t3.464-3.408ZM32.236,53.514a3.581,3.581,0,0,0-.32-1.489,4.016,4.016,0,0,0-.863-1.238,4.327,4.327,0,0,0-1.252-.849,3.518,3.518,0,0,0-1.461-.32,1.284,1.284,0,0,0-.181.014,1.284,1.284,0,0,1-.181.014l.028-.334a3.676,3.676,0,0,0-.32-1.5,3.97,3.97,0,0,0-.863-1.252,4.327,4.327,0,0,0-1.252-.849,3.581,3.581,0,0,0-1.489-.32,1.284,1.284,0,0,0-.181.014,1.284,1.284,0,0,1-.181.014,1.522,1.522,0,0,0,.056-.334,3.43,3.43,0,0,0-.306-1.391,4.71,4.71,0,0,0-.821-1.266,4.122,4.122,0,0,0-1.2-.918,3.056,3.056,0,0,0-1.405-.348h-.139a3.7,3.7,0,0,0-.209-1.252,3.3,3.3,0,0,0-.584-1.029,2.738,2.738,0,0,0-.932-.709,2.882,2.882,0,0,0-1.252-.264,2.791,2.791,0,0,0-1.127.236,3.365,3.365,0,0,0-.96.626,2.951,2.951,0,0,0-.668.932,2.948,2.948,0,0,0,.181,2.727,9.176,9.176,0,0,0,1.1,1.238,3.725,3.725,0,0,0-.376.64,1.715,1.715,0,0,0-.153.723,1.852,1.852,0,0,0,.209.835,4.293,4.293,0,0,0,.515.793,7.9,7.9,0,0,0,.654.709q.348.334.626.612l8.486,8.486a3.507,3.507,0,0,0,1.266.821,4.152,4.152,0,0,0,1.461.264,4.491,4.491,0,0,0,1.642-.292,3.7,3.7,0,0,0,1.294-.835,3.907,3.907,0,0,0,.849-1.28A4.206,4.206,0,0,0,32.236,53.514Z" transform="translate(385.08 412.816)" fill="#f9f3f2"/>
  </g>
</svg>
