<svg id="icon" xmlns="http://www.w3.org/2000/svg" width="63.992" height="51.973" viewBox="0 0 63.992 51.973">
  <path id="Pfad_6" data-name="Pfad 6" d="M70.242,31.033a6.024,6.024,0,0,1-.445,2.309,5.906,5.906,0,0,1-1.308,1.948l-8.43,8.43A6.97,6.97,0,0,1,58.5,51.26l-9.9,9.9a7.863,7.863,0,0,1-2.6,1.739,7.963,7.963,0,0,1-3.047.6,8.8,8.8,0,0,1-2.087-.25,7.3,7.3,0,0,1-2.615,1.767,8.279,8.279,0,0,1-3.088.6,7.608,7.608,0,0,1-2.212-.292,7.441,7.441,0,0,1-1.767-.793,10.784,10.784,0,0,1-1.558-1.182q-.751-.682-1.53-1.489l-.25-.25a8.084,8.084,0,0,1-2.852-.682,7.913,7.913,0,0,1-2.407-1.655L12.7,49.4a6.57,6.57,0,0,1-1.363-1.934,5.427,5.427,0,0,1-.473-2.268q0-.167.014-.348t.042-.376a6.538,6.538,0,0,1-.751-1.711,6.9,6.9,0,0,1-.25-1.85,6.754,6.754,0,0,1,.723-3.061q-.779-.751-1.558-1.461a12.555,12.555,0,0,1-1.405-1.5,7.721,7.721,0,0,1-1.029-1.725,5.312,5.312,0,0,1-.4-2.128,5.637,5.637,0,0,1,.459-2.3A6.86,6.86,0,0,1,8,26.8l10.489-11.3a5.794,5.794,0,0,1,1.975-1.377,5.966,5.966,0,0,1,2.365-.487A5.763,5.763,0,0,1,27.061,15.4l5.147,5.147a9.063,9.063,0,0,1,2.768-2.17,7.637,7.637,0,0,1,3.436-.751,8.15,8.15,0,0,1,1.781.181,6.411,6.411,0,0,1,1.516.543,9.444,9.444,0,0,1,1.377.863q.668.5,1.363,1.141L49.4,15.4a5.906,5.906,0,0,1,1.948-1.308,6.025,6.025,0,0,1,2.309-.445,6.2,6.2,0,0,1,2.3.445A5.256,5.256,0,0,1,57.889,15.4L68.6,26.915A5.892,5.892,0,0,1,70.242,31.033ZM54.272,49.841q.362-.362.765-.737a6.731,6.731,0,0,0,.737-.807,4.846,4.846,0,0,0,.556-.9,2.453,2.453,0,0,0,.223-1.057,2.044,2.044,0,0,0-.125-.723,5.5,5.5,0,0,1-.209-.7q-.139-.195-.264-.376a2.526,2.526,0,0,0-.292-.348l-13.55-13.55-5.4,5.231a8.754,8.754,0,0,1-2.588,1.753,7.7,7.7,0,0,1-3.061.584A8.528,8.528,0,0,1,26.6,36.848a6.124,6.124,0,0,1-1.683-1.628,3.732,3.732,0,0,1-.668-2.184,3.831,3.831,0,0,1,1.169-2.81l5.4-5.453-6.566-6.566a1.932,1.932,0,0,0-1.419-.584,2.187,2.187,0,0,0-.765.139,1.647,1.647,0,0,0-.654.445L10.841,29.642a2.057,2.057,0,0,0-.584,1.419,1.9,1.9,0,0,0,.584,1.391l4.006,3.923a2.081,2.081,0,0,1,.431-.209,3.415,3.415,0,0,1,.57-.153q.306-.056.6-.083t.487-.028a4.782,4.782,0,0,1,1.572.264,5,5,0,0,1,1.405.751,5.409,5.409,0,0,1,1.113,1.141,4.566,4.566,0,0,1,.7,1.433,5.474,5.474,0,0,1,2.434,1.558,6.985,6.985,0,0,1,1.405,2.56,5.115,5.115,0,0,1,1.419.57,6.483,6.483,0,0,1,1.28.974,6.055,6.055,0,0,1,.988,1.252,4.352,4.352,0,0,1,.543,1.433,5.258,5.258,0,0,1,1.795.779,5.716,5.716,0,0,1,1.405,1.349,6.638,6.638,0,0,1,.918,1.739,5.731,5.731,0,0,1,.334,1.92,5.845,5.845,0,0,1-.89,3.172A6.18,6.18,0,0,1,30.9,59.022q.445.417.89.876a8.018,8.018,0,0,0,.946.835,5.393,5.393,0,0,0,1.071.626,3.046,3.046,0,0,0,1.238.25,3.8,3.8,0,0,0,2.017-.57,8.891,8.891,0,0,0,1.655-1.294l-3.561-3.533a1,1,0,0,1,.7-1.7,1.385,1.385,0,0,1,.89.376,9.53,9.53,0,0,1,.932.918q.487.543,1.043,1.2a9.828,9.828,0,0,0,1.21,1.2,6.708,6.708,0,0,0,1.461.918,4.167,4.167,0,0,0,1.781.376,3,3,0,0,0,1.113-.209,4.767,4.767,0,0,0,1-.543,6.82,6.82,0,0,0,.89-.751q.417-.417.807-.835l.195-.223-4.925-4.952a.988.988,0,0,1,.7-1.7.944.944,0,0,1,.7.278L48.6,55.517l4.257-4.257L47.9,46.307a.988.988,0,0,1,.7-1.7.979.979,0,0,1,.723.278Zm1.975-8.208,9.4-9.182a1.932,1.932,0,0,0,.584-1.419,2.026,2.026,0,0,0-.584-1.391L55.079,18.206a1.646,1.646,0,0,0-.654-.431,2.159,2.159,0,0,0-.765-.153,1.932,1.932,0,0,0-1.419.584l-7.79,7.818-3.2-3.227a4.013,4.013,0,0,0-2.838-1.169,3.542,3.542,0,0,0-1.461.292,5.571,5.571,0,0,0-1.224.751,10.133,10.133,0,0,0-1.085,1.016q-.515.556-1.016,1.085l-6.789,6.872a1.932,1.932,0,0,0-.584,1.419,1.879,1.879,0,0,0,.515,1.294,5.051,5.051,0,0,0,1.238.988,6.518,6.518,0,0,0,1.53.64,5.355,5.355,0,0,0,1.391.223,6.584,6.584,0,0,0,2.407-.417,5.785,5.785,0,0,0,1.989-1.335q1.725-1.725,3.492-3.38t3.464-3.408ZM32.236,53.514a3.581,3.581,0,0,0-.32-1.489,4.016,4.016,0,0,0-.863-1.238,4.327,4.327,0,0,0-1.252-.849,3.518,3.518,0,0,0-1.461-.32,1.284,1.284,0,0,0-.181.014,1.284,1.284,0,0,1-.181.014l.028-.334a3.676,3.676,0,0,0-.32-1.5,3.97,3.97,0,0,0-.863-1.252,4.327,4.327,0,0,0-1.252-.849,3.581,3.581,0,0,0-1.489-.32,1.284,1.284,0,0,0-.181.014,1.284,1.284,0,0,1-.181.014,1.522,1.522,0,0,0,.056-.334,3.43,3.43,0,0,0-.306-1.391,4.71,4.71,0,0,0-.821-1.266,4.122,4.122,0,0,0-1.2-.918,3.056,3.056,0,0,0-1.405-.348h-.139a3.7,3.7,0,0,0-.209-1.252,3.3,3.3,0,0,0-.584-1.029,2.738,2.738,0,0,0-.932-.709,2.882,2.882,0,0,0-1.252-.264,2.791,2.791,0,0,0-1.127.236,3.365,3.365,0,0,0-.96.626,2.951,2.951,0,0,0-.668.932,2.948,2.948,0,0,0,.181,2.727,9.176,9.176,0,0,0,1.1,1.238,3.725,3.725,0,0,0-.376.64,1.715,1.715,0,0,0-.153.723,1.852,1.852,0,0,0,.209.835,4.293,4.293,0,0,0,.515.793,7.9,7.9,0,0,0,.654.709q.348.334.626.612l8.486,8.486a3.507,3.507,0,0,0,1.266.821,4.152,4.152,0,0,0,1.461.264,4.491,4.491,0,0,0,1.642-.292,3.7,3.7,0,0,0,1.294-.835,3.907,3.907,0,0,0,.849-1.28A4.206,4.206,0,0,0,32.236,53.514Z" transform="translate(-6.25 -13.644)" fill="#f9f3f2"/>
</svg>
